{
    "asset": {
        "version": "2.0",
        "generator": "Open Asset Import Library (assimp v5.0.5eb040c7)"
    },
    "accessors": [
        {
            "bufferView": 0,
            "byteOffset": 0,
            "componentType": 5126,
            "count": 1012,
            "type": "VEC3",
            "max": [
                17.67107582092285,
                36.21806716918945,
                3.1196510791778566
            ],
            "min": [
                -0.4412330090999603,
                24.13338279724121,
                -1.3434230089187623
            ]
        },
        {
            "bufferView": 1,
            "byteOffset": 0,
            "componentType": 5126,
            "count": 1012,
            "type": "VEC3",
            "max": [
                0.9471727609634399,
                0.970301628112793,
                0.9975320100784302
            ],
            "min": [
                -0.9951368570327759,
                -0.9982742667198181,
                -0.9993345141410828
            ]
        },
        {
            "bufferView": 2,
            "byteOffset": 0,
            "componentType": 5126,
            "count": 1012,
            "type": "VEC2",
            "max": [
                1.0,
                1.0
            ],
            "min": [
                0.0,
                0.0019919872283935549
            ]
        },
        {
            "bufferView": 3,
            "byteOffset": 0,
            "componentType": 5125,
            "count": 4176,
            "type": "SCALAR",
            "max": [
                1011
            ],
            "min": [
                0
            ]
        },
        {
            "bufferView": 4,
            "byteOffset": 0,
            "componentType": 5126,
            "count": 979,
            "type": "VEC3",
            "max": [
                -0.9717199802398682,
                42.773189544677737,
                4.842859268188477
            ],
            "min": [
                -15.816280364990235,
                39.8101692199707,
                -3.7405738830566408
            ]
        },
        {
            "bufferView": 5,
            "byteOffset": 0,
            "componentType": 5126,
            "count": 979,
            "type": "VEC3",
            "max": [
                0.9873800277709961,
                0.9971705675125122,
                0.9976217746734619
            ],
            "min": [
                -0.9873701333999634,
                -0.9962442517280579,
                -0.998262345790863
            ]
        },
        {
            "bufferView": 6,
            "byteOffset": 0,
            "componentType": 5126,
            "count": 979,
            "type": "VEC2",
            "max": [
                0.9847170114517212,
                0.9980080127716065
            ],
            "min": [
                0.0019650000613182785,
                0.0019919872283935549
            ]
        },
        {
            "bufferView": 7,
            "byteOffset": 0,
            "componentType": 5125,
            "count": 4176,
            "type": "SCALAR",
            "max": [
                978
            ],
            "min": [
                0
            ]
        },
        {
            "bufferView": 8,
            "byteOffset": 0,
            "componentType": 5126,
            "count": 979,
            "type": "VEC3",
            "max": [
                -1.3813689947128297,
                58.7213020324707,
                4.045687198638916
            ],
            "min": [
                -11.584967613220215,
                47.55044937133789,
                -2.5581259727478029
            ]
        },
        {
            "bufferView": 9,
            "byteOffset": 0,
            "componentType": 5126,
            "count": 979,
            "type": "VEC3",
            "max": [
                0.9411697387695313,
                0.9742555022239685,
                0.9783220291137695
            ],
            "min": [
                -0.9810894727706909,
                -0.9811487793922424,
                -0.9698547720909119
            ]
        },
        {
            "bufferView": 10,
            "byteOffset": 0,
            "componentType": 5126,
            "count": 979,
            "type": "VEC2",
            "max": [
                0.9847180247306824,
                0.9980080127716065
            ],
            "min": [
                0.0019650000613182785,
                0.0019919872283935549
            ]
        },
        {
            "bufferView": 11,
            "byteOffset": 0,
            "componentType": 5125,
            "count": 4176,
            "type": "SCALAR",
            "max": [
                978
            ],
            "min": [
                0
            ]
        },
        {
            "bufferView": 12,
            "byteOffset": 0,
            "componentType": 5126,
            "count": 1526,
            "type": "VEC3",
            "max": [
                0.5869140028953552,
                66.06751251220703,
                1.0211069583892823
            ],
            "min": [
                -1.9822700023651124,
                -1.5796949863433838,
                -1.0211069583892823
            ]
        },
        {
            "bufferView": 13,
            "byteOffset": 0,
            "componentType": 5126,
            "count": 1526,
            "type": "VEC3",
            "max": [
                1.0,
                1.0,
                1.0
            ],
            "min": [
                -1.0,
                -0.9987552165985107,
                -1.0
            ]
        },
        {
            "bufferView": 14,
            "byteOffset": 0,
            "componentType": 5126,
            "count": 1526,
            "type": "VEC2",
            "max": [
                0.19492299854755402,
                0.9980080127716065
            ],
            "min": [
                0.00038899999344721437,
                0.0019919872283935549
            ]
        },
        {
            "bufferView": 15,
            "byteOffset": 0,
            "componentType": 5125,
            "count": 7920,
            "type": "SCALAR",
            "max": [
                1525
            ],
            "min": [
                0
            ]
        },
        {
            "bufferView": 16,
            "byteOffset": 0,
            "componentType": 5126,
            "count": 93558,
            "type": "VEC3",
            "max": [
                17.04810333251953,
                84.57872009277344,
                18.724620819091798
            ],
            "min": [
                -18.575944900512697,
                65.88240814208985,
                -15.158563613891602
            ]
        },
        {
            "bufferView": 17,
            "byteOffset": 0,
            "componentType": 5126,
            "count": 93558,
            "type": "VEC3",
            "max": [
                0.999974250793457,
                1.0,
                0.999962329864502
            ],
            "min": [
                -0.9999863505363464,
                -1.0,
                -0.9999973773956299
            ]
        },
        {
            "bufferView": 18,
            "byteOffset": 0,
            "componentType": 5126,
            "count": 93558,
            "type": "VEC2",
            "max": [
                0.9878730177879334,
                0.9980080127716065
            ],
            "min": [
                0.001972000114619732,
                0.0019919872283935549
            ]
        },
        {
            "bufferView": 19,
            "byteOffset": 0,
            "componentType": 5125,
            "count": 480084,
            "type": "SCALAR",
            "max": [
                93557
            ],
            "min": [
                0
            ]
        }
    ],
    "buffers": [
        {
            "byteLength": 5139856,
            "uri": "result.bin"
        }
    ],
    "bufferViews": [
        {
            "buffer": 0,
            "byteOffset": 0,
            "byteLength": 12144,
            "target": 34962
        },
        {
            "buffer": 0,
            "byteOffset": 12144,
            "byteLength": 12144,
            "target": 34962
        },
        {
            "buffer": 0,
            "byteOffset": 24288,
            "byteLength": 8096,
            "target": 34962
        },
        {
            "buffer": 0,
            "byteOffset": 32384,
            "byteLength": 16704,
            "target": 34963
        },
        {
            "buffer": 0,
            "byteOffset": 49088,
            "byteLength": 11748,
            "target": 34962
        },
        {
            "buffer": 0,
            "byteOffset": 60836,
            "byteLength": 11748,
            "target": 34962
        },
        {
            "buffer": 0,
            "byteOffset": 72584,
            "byteLength": 7832,
            "target": 34962
        },
        {
            "buffer": 0,
            "byteOffset": 80416,
            "byteLength": 16704,
            "target": 34963
        },
        {
            "buffer": 0,
            "byteOffset": 97120,
            "byteLength": 11748,
            "target": 34962
        },
        {
            "buffer": 0,
            "byteOffset": 108868,
            "byteLength": 11748,
            "target": 34962
        },
        {
            "buffer": 0,
            "byteOffset": 120616,
            "byteLength": 7832,
            "target": 34962
        },
        {
            "buffer": 0,
            "byteOffset": 128448,
            "byteLength": 16704,
            "target": 34963
        },
        {
            "buffer": 0,
            "byteOffset": 145152,
            "byteLength": 18312,
            "target": 34962
        },
        {
            "buffer": 0,
            "byteOffset": 163464,
            "byteLength": 18312,
            "target": 34962
        },
        {
            "buffer": 0,
            "byteOffset": 181776,
            "byteLength": 12208,
            "target": 34962
        },
        {
            "buffer": 0,
            "byteOffset": 193984,
            "byteLength": 31680,
            "target": 34963
        },
        {
            "buffer": 0,
            "byteOffset": 225664,
            "byteLength": 1122696,
            "target": 34962
        },
        {
            "buffer": 0,
            "byteOffset": 1348360,
            "byteLength": 1122696,
            "target": 34962
        },
        {
            "buffer": 0,
            "byteOffset": 2471056,
            "byteLength": 748464,
            "target": 34962
        },
        {
            "buffer": 0,
            "byteOffset": 3219520,
            "byteLength": 1920336,
            "target": 34963
        }
    ],
    "materials": [
        {
            "name": "DefaultMaterial",
            "pbrMetallicRoughness": {
                "baseColorFactor": [
                    0.6000000238418579,
                    0.6000000238418579,
                    0.6000000238418579,
                    1.0
                ],
                "metallicFactor": 0.0
            }
        },
        {
            "name": "phong2SG",
            "pbrMetallicRoughness": {
                "baseColorFactor": [
                    0.6000000238418579,
                    0.6000000238418579,
                    0.6000000238418579,
                    1.0
                ],
                "metallicFactor": 0.0
            }
        },
        {
            "name": "phong1SG",
            "pbrMetallicRoughness": {
                "baseColorFactor": [
                    0.6000000238418579,
                    0.6000000238418579,
                    0.6000000238418579,
                    1.0
                ],
                "metallicFactor": 0.0
            }
        },
        {
            "name": "phongE1SG",
            "pbrMetallicRoughness": {
                "baseColorFactor": [
                    0.6000000238418579,
                    0.6000000238418579,
                    0.6000000238418579,
                    1.0
                ],
                "metallicFactor": 0.0
            }
        }
    ],
    "meshes": [
        {
            "name": "pCube1",
            "primitives": [
                {
                    "mode": 4,
                    "material": 1,
                    "indices": 3,
                    "attributes": {
                        "POSITION": 0,
                        "NORMAL": 1,
                        "TEXCOORD_0": 2
                    }
                }
            ]
        },
        {
            "name": "pCube3",
            "primitives": [
                {
                    "mode": 4,
                    "material": 1,
                    "indices": 7,
                    "attributes": {
                        "POSITION": 4,
                        "NORMAL": 5,
                        "TEXCOORD_0": 6
                    }
                }
            ]
        },
        {
            "name": "pCube2",
            "primitives": [
                {
                    "mode": 4,
                    "material": 1,
                    "indices": 11,
                    "attributes": {
                        "POSITION": 8,
                        "NORMAL": 9,
                        "TEXCOORD_0": 10
                    }
                }
            ]
        },
        {
            "name": "pCylinder1",
            "primitives": [
                {
                    "mode": 4,
                    "material": 2,
                    "indices": 15,
                    "attributes": {
                        "POSITION": 12,
                        "NORMAL": 13,
                        "TEXCOORD_0": 14
                    }
                }
            ]
        },
        {
            "name": "Mesh",
            "primitives": [
                {
                    "mode": 4,
                    "material": 3,
                    "indices": 19,
                    "attributes": {
                        "POSITION": 16,
                        "NORMAL": 17,
                        "TEXCOORD_0": 18
                    }
                }
            ]
        }
    ],
    "nodes": [
        {
            "name": "input.obj",
            "children": [
                1,
                2,
                3,
                4,
                5,
                6,
                7,
                8,
                9,
                10
            ]
        },
        {
            "name": "default"
        },
        {
            "name": "pCube1",
            "mesh": 0
        },
        {
            "name": "default_node"
        },
        {
            "name": "pCube3",
            "mesh": 1
        },
        {
            "name": "default_node_0"
        },
        {
            "name": "pCube2",
            "mesh": 2
        },
        {
            "name": "default_node_1"
        },
        {
            "name": "pCylinder1",
            "mesh": 3
        },
        {
            "name": "default_node_2"
        },
        {
            "name": "Mesh",
            "mesh": 4
        }
    ],
    "scenes": [
        {
            "nodes": [
                0
            ]
        }
    ],
    "scene": 0
}