{
    "asset" : {
        "generator" : "Khronos glTF Blender I/O v1.3.48",
        "version" : "2.0"
    },
    "scene" : 0,
    "scenes" : [
        {
            "name" : "Scene",
            "nodes" : [
                0,
                1,
                2
            ]
        }
    ],
    "nodes" : [
        {
            "mesh" : 0,
            "name" : "Plane.002",
            "rotation" : [
                -0.1157723143696785,
                0,
                0,
                0.9932757616043091
            ],
            "scale" : [
                0.4397006034851074,
                0.4397006034851074,
                0.4397006034851074
            ],
            "translation" : [
                0,
                0.12723079323768616,
                -1.884246826171875
            ]
        },
        {
            "mesh" : 1,
            "name" : "Plane.001",
            "translation" : [
                0,
                0.10979849100112915,
                -0.5617440938949585
            ]
        },
        {
            "mesh" : 2,
            "name" : "Plane",
            "scale" : [
                0.4397006034851074,
                0.4397006034851074,
                0.4397006034851074
            ],
            "translation" : [
                0,
                0.12996163964271545,
                -0.5617440938949585
            ]
        }
    ],
    "materials" : [
        {
            "doubleSided" : true,
            "name" : "Black Edges",
            "pbrMetallicRoughness" : {}
        },
        {
            "doubleSided" : true,
            "emissiveFactor" : [
                1,
                1,
                1
            ],
            "emissiveTexture" : {
                "index" : 0,
                "texCoord" : 0
            },
            "name" : "Screen",
            "pbrMetallicRoughness" : {}
        },
        {
            "doubleSided" : true,
            "name" : "Keyboard",
            "pbrMetallicRoughness" : {}
        },
        {
            "doubleSided" : true,
            "name" : "Base",
            "pbrMetallicRoughness" : {}
        },
        {
            "doubleSided" : true,
            "name" : "Keyboard Under",
            "pbrMetallicRoughness" : {}
        },
        {
            "doubleSided" : true,
            "name" : "Mouse Buttons",
            "pbrMetallicRoughness" : {}
        }
    ],
    "meshes" : [
        {
            "name" : "Plane.002",
            "primitives" : [
                {
                    "attributes" : {
                        "POSITION" : 0,
                        "NORMAL" : 1,
                        "TEXCOORD_0" : 2
                    },
                    "indices" : 3,
                    "material" : 0
                },
                {
                    "attributes" : {
                        "POSITION" : 4,
                        "NORMAL" : 5,
                        "TEXCOORD_0" : 6
                    },
                    "indices" : 7,
                    "material" : 0
                },
                {
                    "attributes" : {
                        "POSITION" : 8,
                        "NORMAL" : 9,
                        "TEXCOORD_0" : 10
                    },
                    "indices" : 11,
                    "material" : 1
                }
            ]
        },
        {
            "name" : "Plane.001",
            "primitives" : [
                {
                    "attributes" : {
                        "POSITION" : 12,
                        "NORMAL" : 13,
                        "TEXCOORD_0" : 14
                    },
                    "indices" : 15,
                    "material" : 2
                }
            ]
        },
        {
            "name" : "Plane",
            "primitives" : [
                {
                    "attributes" : {
                        "POSITION" : 16,
                        "NORMAL" : 17,
                        "TEXCOORD_0" : 18
                    },
                    "indices" : 19,
                    "material" : 3
                },
                {
                    "attributes" : {
                        "POSITION" : 20,
                        "NORMAL" : 21,
                        "TEXCOORD_0" : 22
                    },
                    "indices" : 23,
                    "material" : 4
                },
                {
                    "attributes" : {
                        "POSITION" : 24,
                        "NORMAL" : 25,
                        "TEXCOORD_0" : 26
                    },
                    "indices" : 27,
                    "material" : 5
                }
            ]
        }
    ],
    "textures" : [
        {
            "source" : 0
        }
    ],
    "images" : [
        {
            "bufferView" : 12,
            "mimeType" : "image/png",
            "name" : "Abstract-background-for-design-02-[Converted]"
        }
    ],
    "accessors" : [
        {
            "bufferView" : 0,
            "componentType" : 5126,
            "count" : 178,
            "max" : [
                3.9178969860076904,
                5.087821006774902,
                0.03552372008562088
            ],
            "min" : [
                -3.866084337234497,
                -0.03172760456800461,
                -0.126431405544281
            ],
            "type" : "VEC3"
        },
        {
            "bufferView" : 1,
            "componentType" : 5126,
            "count" : 178,
            "type" : "VEC3"
        },
        {
            "bufferView" : 2,
            "componentType" : 5126,
            "count" : 178,
            "type" : "VEC2"
        },
        {
            "bufferView" : 3,
            "componentType" : 5123,
            "count" : 1002,
            "type" : "SCALAR"
        },
        {
            "bufferView" : 4,
            "componentType" : 5126,
            "count" : 32,
            "max" : [
                3.5932602882385254,
                4.7416276931762695,
                0.001364775002002716
            ],
            "min" : [
                -3.5740432739257812,
                0.21997851133346558,
                0.0013621523976325989
            ],
            "type" : "VEC3"
        },
        {
            "bufferView" : 5,
            "componentType" : 5126,
            "count" : 32,
            "type" : "VEC3"
        },
        {
            "bufferView" : 6,
            "componentType" : 5126,
            "count" : 32,
            "type" : "VEC2"
        },
        {
            "bufferView" : 7,
            "componentType" : 5123,
            "count" : 96,
            "type" : "SCALAR"
        },
        {
            "bufferView" : 8,
            "componentType" : 5126,
            "count" : 16,
            "max" : [
                3.5785012245178223,
                4.723846435546875,
                0.0013645365834236145
            ],
            "min" : [
                -3.559903144836426,
                0.230518639087677,
                0.0013623908162117004
            ],
            "type" : "VEC3"
        },
        {
            "bufferView" : 9,
            "componentType" : 5126,
            "count" : 16,
            "type" : "VEC3"
        },
        {
            "bufferView" : 10,
            "componentType" : 5126,
            "count" : 16,
            "type" : "VEC2"
        },
        {
            "bufferView" : 11,
            "componentType" : 5123,
            "count" : 54,
            "type" : "SCALAR"
        },
        {
            "bufferView" : 13,
            "componentType" : 5126,
            "count" : 2618,
            "max" : [
                1.308431625366211,
                0.024670757353305817,
                -0.08229225128889084
            ],
            "min" : [
                -1.311173439025879,
                0,
                -1.0844128131866455
            ],
            "type" : "VEC3"
        },
        {
            "bufferView" : 14,
            "componentType" : 5126,
            "count" : 2618,
            "type" : "VEC3"
        },
        {
            "bufferView" : 15,
            "componentType" : 5126,
            "count" : 2618,
            "type" : "VEC2"
        },
        {
            "bufferView" : 16,
            "componentType" : 5123,
            "count" : 10164,
            "type" : "SCALAR"
        },
        {
            "bufferView" : 17,
            "componentType" : 5126,
            "count" : 1145,
            "max" : [
                3.9679641723632812,
                0,
                2.087649345397949
            ],
            "min" : [
                -3.9571990966796875,
                -0.2707107961177826,
                -3.047431468963623
            ],
            "type" : "VEC3"
        },
        {
            "bufferView" : 18,
            "componentType" : 5126,
            "count" : 1145,
            "type" : "VEC3"
        },
        {
            "bufferView" : 19,
            "componentType" : 5126,
            "count" : 1145,
            "type" : "VEC2"
        },
        {
            "bufferView" : 20,
            "componentType" : 5123,
            "count" : 6384,
            "type" : "SCALAR"
        },
        {
            "bufferView" : 21,
            "componentType" : 5126,
            "count" : 136,
            "max" : [
                3.139878511428833,
                -0.010261617600917816,
                1.7335567474365234
            ],
            "min" : [
                -3.129115343093872,
                -0.046718403697013855,
                -2.615978479385376
            ],
            "type" : "VEC3"
        },
        {
            "bufferView" : 22,
            "componentType" : 5126,
            "count" : 136,
            "type" : "VEC3"
        },
        {
            "bufferView" : 23,
            "componentType" : 5126,
            "count" : 136,
            "type" : "VEC2"
        },
        {
            "bufferView" : 24,
            "componentType" : 5123,
            "count" : 606,
            "type" : "SCALAR"
        },
        {
            "bufferView" : 25,
            "componentType" : 5126,
            "count" : 40,
            "max" : [
                1.0530848503112793,
                0.010824933648109436,
                1.7006309032440186
            ],
            "min" : [
                -1.042328119277954,
                -0.010261617600917816,
                1.4799668788909912
            ],
            "type" : "VEC3"
        },
        {
            "bufferView" : 26,
            "componentType" : 5126,
            "count" : 40,
            "type" : "VEC3"
        },
        {
            "bufferView" : 27,
            "componentType" : 5126,
            "count" : 40,
            "type" : "VEC2"
        },
        {
            "bufferView" : 28,
            "componentType" : 5123,
            "count" : 198,
            "type" : "SCALAR"
        }
    ],
    "bufferViews" : [
        {
            "buffer" : 0,
            "byteLength" : 2136,
            "byteOffset" : 0
        },
        {
            "buffer" : 0,
            "byteLength" : 2136,
            "byteOffset" : 2136
        },
        {
            "buffer" : 0,
            "byteLength" : 1424,
            "byteOffset" : 4272
        },
        {
            "buffer" : 0,
            "byteLength" : 2004,
            "byteOffset" : 5696
        },
        {
            "buffer" : 0,
            "byteLength" : 384,
            "byteOffset" : 7700
        },
        {
            "buffer" : 0,
            "byteLength" : 384,
            "byteOffset" : 8084
        },
        {
            "buffer" : 0,
            "byteLength" : 256,
            "byteOffset" : 8468
        },
        {
            "buffer" : 0,
            "byteLength" : 192,
            "byteOffset" : 8724
        },
        {
            "buffer" : 0,
            "byteLength" : 192,
            "byteOffset" : 8916
        },
        {
            "buffer" : 0,
            "byteLength" : 192,
            "byteOffset" : 9108
        },
        {
            "buffer" : 0,
            "byteLength" : 128,
            "byteOffset" : 9300
        },
        {
            "buffer" : 0,
            "byteLength" : 108,
            "byteOffset" : 9428
        },
        {
            "buffer" : 0,
            "byteLength" : 948887,
            "byteOffset" : 9536
        },
        {
            "buffer" : 0,
            "byteLength" : 31416,
            "byteOffset" : 958424
        },
        {
            "buffer" : 0,
            "byteLength" : 31416,
            "byteOffset" : 989840
        },
        {
            "buffer" : 0,
            "byteLength" : 20944,
            "byteOffset" : 1021256
        },
        {
            "buffer" : 0,
            "byteLength" : 20328,
            "byteOffset" : 1042200
        },
        {
            "buffer" : 0,
            "byteLength" : 13740,
            "byteOffset" : 1062528
        },
        {
            "buffer" : 0,
            "byteLength" : 13740,
            "byteOffset" : 1076268
        },
        {
            "buffer" : 0,
            "byteLength" : 9160,
            "byteOffset" : 1090008
        },
        {
            "buffer" : 0,
            "byteLength" : 12768,
            "byteOffset" : 1099168
        },
        {
            "buffer" : 0,
            "byteLength" : 1632,
            "byteOffset" : 1111936
        },
        {
            "buffer" : 0,
            "byteLength" : 1632,
            "byteOffset" : 1113568
        },
        {
            "buffer" : 0,
            "byteLength" : 1088,
            "byteOffset" : 1115200
        },
        {
            "buffer" : 0,
            "byteLength" : 1212,
            "byteOffset" : 1116288
        },
        {
            "buffer" : 0,
            "byteLength" : 480,
            "byteOffset" : 1117500
        },
        {
            "buffer" : 0,
            "byteLength" : 480,
            "byteOffset" : 1117980
        },
        {
            "buffer" : 0,
            "byteLength" : 320,
            "byteOffset" : 1118460
        },
        {
            "buffer" : 0,
            "byteLength" : 396,
            "byteOffset" : 1118780
        }
    ],
    "buffers" : [
        {
            "byteLength" : 1119176,
            "uri" : "data:application/octet-stream;base64,"
        }
    ]
}
