{
    "asset" : {
        "generator" : "Khronos glTF Blender I/O v1.3.48",
        "version" : "2.0"
    },
    "scene" : 0,
    "scenes" : [
        {
            "name" : "Scene",
            "nodes" : [
                0
            ]
        }
    ],
    "nodes" : [
        {
            "mesh" : 0,
            "name" : "Privacy",
            "rotation" : [
                0.5,
                0.5,
                -0.5,
                0.4999999701976776
            ]
        }
    ],
    "meshes" : [
        {
            "name" : "Text",
            "primitives" : [
                {
                    "attributes" : {
                        "POSITION" : 0,
                        "NORMAL" : 1,
                        "TEXCOORD_0" : 2
                    },
                    "indices" : 3
                }
            ]
        }
    ],
    "accessors" : [
        {
            "bufferView" : 0,
            "componentType" : 5126,
            "count" : 1878,
            "max" : [
                1.4811046123504639,
                0.1599999964237213,
                0
            ],
            "min" : [
                -1.4425872564315796,
                -0.1599999964237213,
                -0.5087209343910217
            ],
            "type" : "VEC3"
        },
        {
            "bufferView" : 1,
            "componentType" : 5126,
            "count" : 1878,
            "type" : "VEC3"
        },
        {
            "bufferView" : 2,
            "componentType" : 5126,
            "count" : 1878,
            "type" : "VEC2"
        },
        {
            "bufferView" : 3,
            "componentType" : 5123,
            "count" : 3288,
            "type" : "SCALAR"
        }
    ],
    "bufferViews" : [
        {
            "buffer" : 0,
            "byteLength" : 22536,
            "byteOffset" : 0
        },
        {
            "buffer" : 0,
            "byteLength" : 22536,
            "byteOffset" : 22536
        },
        {
            "buffer" : 0,
            "byteLength" : 15024,
            "byteOffset" : 45072
        },
        {
            "buffer" : 0,
            "byteLength" : 6576,
            "byteOffset" : 60096
        }
    ],
    "buffers" : [
        {
            "byteLength" : 66672,
            "uri" : "data:application/octet-stream;base64,"
        }
    ]
}
